<mxfile host="app.diagrams.net" modified="2022-04-15T04:34:57.130Z" agent="5.0 (Macintosh; Intel Mac OS X 10_15_7) AppleWebKit/537.36 (KHTML, like Gecko) Chrome/100.0.4896.88 Safari/537.36" etag="Wk4QpEL_FWoCxbG8Lm_V" version="17.4.4" type="github">
  <diagram id="R-IjnhNuVru9fgC9JOxa" name="Page-1">
    <mxGraphModel dx="1061" dy="728" grid="1" gridSize="10" guides="1" tooltips="1" connect="1" arrows="1" fold="1" page="1" pageScale="1" pageWidth="827" pageHeight="1169" math="0" shadow="0">
      <root>
        <mxCell id="0" />
        <mxCell id="1" parent="0" />
        <mxCell id="BeBIerChKtcQzGGhishX-3" value="" style="edgeStyle=orthogonalEdgeStyle;orthogonalLoop=1;jettySize=auto;html=1;fontFamily=粉圓體;fontSource=https%3A%2F%2Fgithub.com%2Fjustfont%2Fopen-huninn-font%2Fraw%2Fmaster%2Ffont%2Fjf-openhuninn-1.1.ttf;rounded=1;sketch=1;" parent="1" source="BeBIerChKtcQzGGhishX-1" target="BeBIerChKtcQzGGhishX-2" edge="1">
          <mxGeometry relative="1" as="geometry" />
        </mxCell>
        <UserObject label="jgraph/drawio-github" link="https://github.com/jgraph/drawio-github" id="BeBIerChKtcQzGGhishX-1">
          <mxCell style="rounded=0;whiteSpace=wrap;html=1;fontFamily=粉圓體;fontSource=https%3A%2F%2Fgithub.com%2Fjustfont%2Fopen-huninn-font%2Fraw%2Fmaster%2Ffont%2Fjf-openhuninn-1.1.ttf;fillColor=#ffe6cc;strokeColor=#d79b00;sketch=1;" parent="1" vertex="1">
            <mxGeometry x="40" y="40" width="120" height="40" as="geometry" />
          </mxCell>
        </UserObject>
        <mxCell id="BeBIerChKtcQzGGhishX-5" value="" style="edgeStyle=orthogonalEdgeStyle;orthogonalLoop=1;jettySize=auto;html=1;fontFamily=粉圓體;fontSource=https%3A%2F%2Fgithub.com%2Fjustfont%2Fopen-huninn-font%2Fraw%2Fmaster%2Ffont%2Fjf-openhuninn-1.1.ttf;rounded=1;sketch=1;" parent="1" source="BeBIerChKtcQzGGhishX-2" target="BeBIerChKtcQzGGhishX-4" edge="1">
          <mxGeometry relative="1" as="geometry" />
        </mxCell>
        <UserObject label="online editer with&lt;br&gt;?mode=github" link="https://app.diagrams.net/?mode=github" id="BeBIerChKtcQzGGhishX-2">
          <mxCell style="rounded=0;whiteSpace=wrap;html=1;fontFamily=粉圓體;fontSource=https%3A%2F%2Fgithub.com%2Fjustfont%2Fopen-huninn-font%2Fraw%2Fmaster%2Ffont%2Fjf-openhuninn-1.1.ttf;fillColor=#ffe6cc;strokeColor=#d79b00;sketch=1;" parent="1" vertex="1">
            <mxGeometry x="240" y="40" width="120" height="40" as="geometry" />
          </mxCell>
        </UserObject>
        <mxCell id="1pa4mlFPbAqnV3mgH6T4-25" style="edgeStyle=orthogonalEdgeStyle;rounded=0;sketch=1;orthogonalLoop=1;jettySize=auto;html=1;exitX=1;exitY=0.5;exitDx=0;exitDy=0;entryX=0;entryY=0.5;entryDx=0;entryDy=0;fontFamily=粉圓體;fontSource=https%3A%2F%2Fgithub.com%2Fjustfont%2Fopen-huninn-font%2Fraw%2Fmaster%2Ffont%2Fjf-openhuninn-1.1.ttf;fontColor=#000000;" edge="1" parent="1" source="BeBIerChKtcQzGGhishX-4" target="BeBIerChKtcQzGGhishX-6">
          <mxGeometry relative="1" as="geometry" />
        </mxCell>
        <UserObject label="Add Applications&lt;br&gt;draw.io App" link="https://github.com/settings/installations" id="BeBIerChKtcQzGGhishX-4">
          <mxCell style="rounded=0;whiteSpace=wrap;html=1;fontFamily=粉圓體;fontSource=https%3A%2F%2Fgithub.com%2Fjustfont%2Fopen-huninn-font%2Fraw%2Fmaster%2Ffont%2Fjf-openhuninn-1.1.ttf;fillColor=#fff2cc;strokeColor=#d6b656;sketch=1;" parent="1" vertex="1">
            <mxGeometry x="440" y="40" width="120" height="40" as="geometry" />
          </mxCell>
        </UserObject>
        <mxCell id="1pa4mlFPbAqnV3mgH6T4-30" style="edgeStyle=orthogonalEdgeStyle;rounded=1;sketch=1;orthogonalLoop=1;jettySize=auto;html=1;exitX=1;exitY=0.5;exitDx=0;exitDy=0;entryX=0;entryY=0.5;entryDx=0;entryDy=0;fontFamily=粉圓體;fontSource=https%3A%2F%2Fgithub.com%2Fjustfont%2Fopen-huninn-font%2Fraw%2Fmaster%2Ffont%2Fjf-openhuninn-1.1.ttf;fontColor=#000000;" edge="1" parent="1" source="BeBIerChKtcQzGGhishX-6" target="BeBIerChKtcQzGGhishX-8">
          <mxGeometry relative="1" as="geometry">
            <Array as="points">
              <mxPoint x="780" y="60" />
              <mxPoint x="780" y="120" />
              <mxPoint x="10" y="120" />
              <mxPoint x="10" y="180" />
            </Array>
          </mxGeometry>
        </mxCell>
        <UserObject label="select repo and in whitch folder" id="BeBIerChKtcQzGGhishX-6">
          <mxCell style="rounded=0;whiteSpace=wrap;html=1;fontFamily=粉圓體;fontSource=https%3A%2F%2Fgithub.com%2Fjustfont%2Fopen-huninn-font%2Fraw%2Fmaster%2Ffont%2Fjf-openhuninn-1.1.ttf;fillColor=#fff2cc;strokeColor=#d6b656;sketch=1;" parent="1" vertex="1">
            <mxGeometry x="640" y="40" width="120" height="40" as="geometry" />
          </mxCell>
        </UserObject>
        <mxCell id="BeBIerChKtcQzGGhishX-11" value="" style="edgeStyle=orthogonalEdgeStyle;rounded=1;orthogonalLoop=1;jettySize=auto;html=1;fontFamily=粉圓體;fontSource=https%3A%2F%2Fgithub.com%2Fjustfont%2Fopen-huninn-font%2Fraw%2Fmaster%2Ffont%2Fjf-openhuninn-1.1.ttf;sketch=1;" parent="1" source="BeBIerChKtcQzGGhishX-8" target="BeBIerChKtcQzGGhishX-10" edge="1">
          <mxGeometry relative="1" as="geometry" />
        </mxCell>
        <UserObject label="New draw with the first commit" id="BeBIerChKtcQzGGhishX-8">
          <mxCell style="rounded=0;whiteSpace=wrap;html=1;fontFamily=粉圓體;fontSource=https%3A%2F%2Fgithub.com%2Fjustfont%2Fopen-huninn-font%2Fraw%2Fmaster%2Ffont%2Fjf-openhuninn-1.1.ttf;fillColor=#e1d5e7;strokeColor=#9673a6;sketch=1;" parent="1" vertex="1">
            <mxGeometry x="40" y="160" width="120" height="40" as="geometry" />
          </mxCell>
        </UserObject>
        <mxCell id="1pa4mlFPbAqnV3mgH6T4-28" style="edgeStyle=orthogonalEdgeStyle;rounded=1;sketch=1;orthogonalLoop=1;jettySize=auto;html=1;exitX=1;exitY=0.5;exitDx=0;exitDy=0;entryX=0;entryY=0.5;entryDx=0;entryDy=0;fontFamily=粉圓體;fontSource=https%3A%2F%2Fgithub.com%2Fjustfont%2Fopen-huninn-font%2Fraw%2Fmaster%2Ffont%2Fjf-openhuninn-1.1.ttf;fontColor=#000000;" edge="1" parent="1" source="BeBIerChKtcQzGGhishX-10" target="1pa4mlFPbAqnV3mgH6T4-27">
          <mxGeometry relative="1" as="geometry" />
        </mxCell>
        <UserObject label="every save will create an commit" id="BeBIerChKtcQzGGhishX-10">
          <mxCell style="rounded=0;whiteSpace=wrap;html=1;fontFamily=粉圓體;fontSource=https%3A%2F%2Fgithub.com%2Fjustfont%2Fopen-huninn-font%2Fraw%2Fmaster%2Ffont%2Fjf-openhuninn-1.1.ttf;fillColor=#e1d5e7;strokeColor=#9673a6;sketch=1;" parent="1" vertex="1">
            <mxGeometry x="240" y="160" width="120" height="40" as="geometry" />
          </mxCell>
        </UserObject>
        <mxCell id="BeBIerChKtcQzGGhishX-12" style="edgeStyle=orthogonalEdgeStyle;rounded=1;orthogonalLoop=1;jettySize=auto;html=1;exitX=1;exitY=0.5;exitDx=0;exitDy=0;entryX=0;entryY=0.5;entryDx=0;entryDy=0;fontFamily=粉圓體;fontSource=https%3A%2F%2Fgithub.com%2Fjustfont%2Fopen-huninn-font%2Fraw%2Fmaster%2Ffont%2Fjf-openhuninn-1.1.ttf;sketch=1;" parent="1" source="BeBIerChKtcQzGGhishX-10" target="BeBIerChKtcQzGGhishX-10" edge="1">
          <mxGeometry relative="1" as="geometry">
            <Array as="points">
              <mxPoint x="380" y="180" />
              <mxPoint x="380" y="230" />
              <mxPoint x="220" y="230" />
              <mxPoint x="220" y="180" />
            </Array>
          </mxGeometry>
        </mxCell>
        <mxCell id="BeBIerChKtcQzGGhishX-13" value="commit" style="edgeLabel;html=1;align=center;verticalAlign=middle;resizable=0;points=[];fontFamily=粉圓體;sketch=1;fontSource=https%3A%2F%2Fgithub.com%2Fjustfont%2Fopen-huninn-font%2Fraw%2Fmaster%2Ffont%2Fjf-openhuninn-1.1.ttf;" parent="BeBIerChKtcQzGGhishX-12" vertex="1" connectable="0">
          <mxGeometry relative="1" as="geometry">
            <mxPoint as="offset" />
          </mxGeometry>
        </mxCell>
        <UserObject label="Close" id="BeBIerChKtcQzGGhishX-14">
          <mxCell style="rounded=0;whiteSpace=wrap;html=1;fontFamily=粉圓體;fontSource=https%3A%2F%2Fgithub.com%2Fjustfont%2Fopen-huninn-font%2Fraw%2Fmaster%2Ffont%2Fjf-openhuninn-1.1.ttf;fillColor=#f5f5f5;fontColor=#333333;strokeColor=#666666;sketch=1;" parent="1" vertex="1">
            <mxGeometry x="640" y="160" width="120" height="40" as="geometry" />
          </mxCell>
        </UserObject>
        <mxCell id="1pa4mlFPbAqnV3mgH6T4-1" value="&lt;font color=&quot;#000000&quot;&gt;1&lt;/font&gt;" style="ellipse;whiteSpace=wrap;html=1;aspect=fixed;sketch=1;fontFamily=粉圓體;fontSource=https%3A%2F%2Fgithub.com%2Fjustfont%2Fopen-huninn-font%2Fraw%2Fmaster%2Ffont%2Fjf-openhuninn-1.1.ttf;fillColor=#1ba1e2;strokeColor=#006EAF;fontColor=#ffffff;" vertex="1" parent="1">
          <mxGeometry x="20" y="10" width="30" height="30" as="geometry" />
        </mxCell>
        <mxCell id="1pa4mlFPbAqnV3mgH6T4-2" value="&lt;font color=&quot;#000000&quot;&gt;2&lt;/font&gt;" style="ellipse;whiteSpace=wrap;html=1;aspect=fixed;sketch=1;fontFamily=粉圓體;fontSource=https%3A%2F%2Fgithub.com%2Fjustfont%2Fopen-huninn-font%2Fraw%2Fmaster%2Ffont%2Fjf-openhuninn-1.1.ttf;fillColor=#1ba1e2;strokeColor=#006EAF;fontColor=#ffffff;" vertex="1" parent="1">
          <mxGeometry x="220" y="10" width="30" height="30" as="geometry" />
        </mxCell>
        <mxCell id="1pa4mlFPbAqnV3mgH6T4-3" value="&lt;font color=&quot;#000000&quot;&gt;3&lt;/font&gt;" style="ellipse;whiteSpace=wrap;html=1;aspect=fixed;sketch=1;fontFamily=粉圓體;fontSource=https%3A%2F%2Fgithub.com%2Fjustfont%2Fopen-huninn-font%2Fraw%2Fmaster%2Ffont%2Fjf-openhuninn-1.1.ttf;fillColor=#1ba1e2;strokeColor=#006EAF;fontColor=#ffffff;" vertex="1" parent="1">
          <mxGeometry x="420" y="10" width="30" height="30" as="geometry" />
        </mxCell>
        <mxCell id="1pa4mlFPbAqnV3mgH6T4-4" value="&lt;font color=&quot;#000000&quot;&gt;4&lt;/font&gt;" style="ellipse;whiteSpace=wrap;html=1;aspect=fixed;sketch=1;fontFamily=粉圓體;fontSource=https%3A%2F%2Fgithub.com%2Fjustfont%2Fopen-huninn-font%2Fraw%2Fmaster%2Ffont%2Fjf-openhuninn-1.1.ttf;fillColor=#1ba1e2;strokeColor=#006EAF;fontColor=#ffffff;" vertex="1" parent="1">
          <mxGeometry x="620" y="10" width="30" height="30" as="geometry" />
        </mxCell>
        <mxCell id="1pa4mlFPbAqnV3mgH6T4-6" value="&lt;font color=&quot;#000000&quot;&gt;5&lt;/font&gt;" style="ellipse;whiteSpace=wrap;html=1;aspect=fixed;sketch=1;fontFamily=粉圓體;fontSource=https%3A%2F%2Fgithub.com%2Fjustfont%2Fopen-huninn-font%2Fraw%2Fmaster%2Ffont%2Fjf-openhuninn-1.1.ttf;fillColor=#1ba1e2;strokeColor=#006EAF;fontColor=#ffffff;" vertex="1" parent="1">
          <mxGeometry x="20" y="130" width="30" height="30" as="geometry" />
        </mxCell>
        <mxCell id="1pa4mlFPbAqnV3mgH6T4-7" value="&lt;font color=&quot;#000000&quot;&gt;6&lt;/font&gt;" style="ellipse;whiteSpace=wrap;html=1;aspect=fixed;sketch=1;fontFamily=粉圓體;fontSource=https%3A%2F%2Fgithub.com%2Fjustfont%2Fopen-huninn-font%2Fraw%2Fmaster%2Ffont%2Fjf-openhuninn-1.1.ttf;fillColor=#1ba1e2;strokeColor=#006EAF;fontColor=#ffffff;" vertex="1" parent="1">
          <mxGeometry x="220" y="130" width="30" height="30" as="geometry" />
        </mxCell>
        <mxCell id="1pa4mlFPbAqnV3mgH6T4-8" value="&lt;font color=&quot;#000000&quot;&gt;8&lt;/font&gt;" style="ellipse;whiteSpace=wrap;html=1;aspect=fixed;sketch=1;fontFamily=粉圓體;fontSource=https%3A%2F%2Fgithub.com%2Fjustfont%2Fopen-huninn-font%2Fraw%2Fmaster%2Ffont%2Fjf-openhuninn-1.1.ttf;fillColor=#1ba1e2;strokeColor=#006EAF;fontColor=#ffffff;" vertex="1" parent="1">
          <mxGeometry x="620" y="130" width="30" height="30" as="geometry" />
        </mxCell>
        <mxCell id="1pa4mlFPbAqnV3mgH6T4-9" value="The demo is referred from &lt;a href=&quot;https://github.com/jgraph/drawio-github&quot;&gt;https://github.com/jgraph/drawio-github&lt;/a&gt;" style="text;html=1;strokeColor=none;fillColor=none;align=left;verticalAlign=middle;whiteSpace=wrap;rounded=0;sketch=1;fontFamily=粉圓體;fontSource=https%3A%2F%2Fgithub.com%2Fjustfont%2Fopen-huninn-font%2Fraw%2Fmaster%2Ffont%2Fjf-openhuninn-1.1.ttf;fontColor=#000000;" vertex="1" parent="1">
          <mxGeometry x="40" y="280" width="400" height="30" as="geometry" />
        </mxCell>
        <mxCell id="1pa4mlFPbAqnV3mgH6T4-10" value="Open or create the drawio in&amp;nbsp;&lt;a href=&quot;https://app.diagrams.net/?mode=github&quot;&gt;https://app.diagrams.net/?mode=github&lt;/a&gt;" style="text;html=1;strokeColor=none;fillColor=none;align=left;verticalAlign=middle;whiteSpace=wrap;rounded=0;sketch=1;fontFamily=粉圓體;fontSource=https%3A%2F%2Fgithub.com%2Fjustfont%2Fopen-huninn-font%2Fraw%2Fmaster%2Ffont%2Fjf-openhuninn-1.1.ttf;fontColor=#000000;" vertex="1" parent="1">
          <mxGeometry x="40" y="320" width="400" height="30" as="geometry" />
        </mxCell>
        <mxCell id="1pa4mlFPbAqnV3mgH6T4-11" value="&lt;font color=&quot;#000000&quot;&gt;1&lt;/font&gt;" style="ellipse;whiteSpace=wrap;html=1;aspect=fixed;sketch=1;fontFamily=粉圓體;fontSource=https%3A%2F%2Fgithub.com%2Fjustfont%2Fopen-huninn-font%2Fraw%2Fmaster%2Ffont%2Fjf-openhuninn-1.1.ttf;fillColor=#1ba1e2;strokeColor=#006EAF;fontColor=#ffffff;" vertex="1" parent="1">
          <mxGeometry x="10" y="280" width="30" height="30" as="geometry" />
        </mxCell>
        <mxCell id="1pa4mlFPbAqnV3mgH6T4-12" value="&lt;font color=&quot;#000000&quot;&gt;2&lt;/font&gt;" style="ellipse;whiteSpace=wrap;html=1;aspect=fixed;sketch=1;fontFamily=粉圓體;fontSource=https%3A%2F%2Fgithub.com%2Fjustfont%2Fopen-huninn-font%2Fraw%2Fmaster%2Ffont%2Fjf-openhuninn-1.1.ttf;fillColor=#1ba1e2;strokeColor=#006EAF;fontColor=#ffffff;" vertex="1" parent="1">
          <mxGeometry x="10" y="320" width="30" height="30" as="geometry" />
        </mxCell>
        <mxCell id="1pa4mlFPbAqnV3mgH6T4-13" value="For the first time to use, may need to add the application from github app." style="text;html=1;strokeColor=none;fillColor=none;align=left;verticalAlign=middle;whiteSpace=wrap;rounded=0;sketch=1;fontFamily=粉圓體;fontSource=https%3A%2F%2Fgithub.com%2Fjustfont%2Fopen-huninn-font%2Fraw%2Fmaster%2Ffont%2Fjf-openhuninn-1.1.ttf;fontColor=#000000;" vertex="1" parent="1">
          <mxGeometry x="40" y="360" width="400" height="30" as="geometry" />
        </mxCell>
        <mxCell id="1pa4mlFPbAqnV3mgH6T4-14" value="&lt;font color=&quot;#000000&quot;&gt;3&lt;/font&gt;" style="ellipse;whiteSpace=wrap;html=1;aspect=fixed;sketch=1;fontFamily=粉圓體;fontSource=https%3A%2F%2Fgithub.com%2Fjustfont%2Fopen-huninn-font%2Fraw%2Fmaster%2Ffont%2Fjf-openhuninn-1.1.ttf;fillColor=#1ba1e2;strokeColor=#006EAF;fontColor=#ffffff;" vertex="1" parent="1">
          <mxGeometry x="10" y="360" width="30" height="30" as="geometry" />
        </mxCell>
        <mxCell id="1pa4mlFPbAqnV3mgH6T4-15" value="Select the repo and where the folder to store." style="text;html=1;strokeColor=none;fillColor=none;align=left;verticalAlign=middle;whiteSpace=wrap;rounded=0;sketch=1;fontFamily=粉圓體;fontSource=https%3A%2F%2Fgithub.com%2Fjustfont%2Fopen-huninn-font%2Fraw%2Fmaster%2Ffont%2Fjf-openhuninn-1.1.ttf;fontColor=#000000;" vertex="1" parent="1">
          <mxGeometry x="40" y="400" width="400" height="30" as="geometry" />
        </mxCell>
        <mxCell id="1pa4mlFPbAqnV3mgH6T4-17" value="&lt;font color=&quot;#000000&quot;&gt;4&lt;/font&gt;" style="ellipse;whiteSpace=wrap;html=1;aspect=fixed;sketch=1;fontFamily=粉圓體;fontSource=https%3A%2F%2Fgithub.com%2Fjustfont%2Fopen-huninn-font%2Fraw%2Fmaster%2Ffont%2Fjf-openhuninn-1.1.ttf;fillColor=#1ba1e2;strokeColor=#006EAF;fontColor=#ffffff;" vertex="1" parent="1">
          <mxGeometry x="10" y="400" width="30" height="30" as="geometry" />
        </mxCell>
        <mxCell id="1pa4mlFPbAqnV3mgH6T4-18" value="New draw with the first commit." style="text;html=1;strokeColor=none;fillColor=none;align=left;verticalAlign=middle;whiteSpace=wrap;rounded=0;sketch=1;fontFamily=粉圓體;fontSource=https%3A%2F%2Fgithub.com%2Fjustfont%2Fopen-huninn-font%2Fraw%2Fmaster%2Ffont%2Fjf-openhuninn-1.1.ttf;fontColor=#000000;" vertex="1" parent="1">
          <mxGeometry x="510" y="280" width="290" height="30" as="geometry" />
        </mxCell>
        <mxCell id="1pa4mlFPbAqnV3mgH6T4-19" value="&lt;font color=&quot;#000000&quot;&gt;5&lt;/font&gt;" style="ellipse;whiteSpace=wrap;html=1;aspect=fixed;sketch=1;fontFamily=粉圓體;fontSource=https%3A%2F%2Fgithub.com%2Fjustfont%2Fopen-huninn-font%2Fraw%2Fmaster%2Ffont%2Fjf-openhuninn-1.1.ttf;fillColor=#1ba1e2;strokeColor=#006EAF;fontColor=#ffffff;" vertex="1" parent="1">
          <mxGeometry x="480" y="280" width="30" height="30" as="geometry" />
        </mxCell>
        <mxCell id="1pa4mlFPbAqnV3mgH6T4-20" value="Save the draw will make an new commit." style="text;html=1;strokeColor=none;fillColor=none;align=left;verticalAlign=middle;whiteSpace=wrap;rounded=0;sketch=1;fontFamily=粉圓體;fontSource=https%3A%2F%2Fgithub.com%2Fjustfont%2Fopen-huninn-font%2Fraw%2Fmaster%2Ffont%2Fjf-openhuninn-1.1.ttf;fontColor=#000000;" vertex="1" parent="1">
          <mxGeometry x="510" y="320" width="290" height="30" as="geometry" />
        </mxCell>
        <mxCell id="1pa4mlFPbAqnV3mgH6T4-21" value="&lt;font color=&quot;#000000&quot;&gt;6&lt;/font&gt;" style="ellipse;whiteSpace=wrap;html=1;aspect=fixed;sketch=1;fontFamily=粉圓體;fontSource=https%3A%2F%2Fgithub.com%2Fjustfont%2Fopen-huninn-font%2Fraw%2Fmaster%2Ffont%2Fjf-openhuninn-1.1.ttf;fillColor=#1ba1e2;strokeColor=#006EAF;fontColor=#ffffff;" vertex="1" parent="1">
          <mxGeometry x="480" y="320" width="30" height="30" as="geometry" />
        </mxCell>
        <mxCell id="1pa4mlFPbAqnV3mgH6T4-22" value="Save as png or svg for embeded as image" style="text;html=1;strokeColor=none;fillColor=none;align=left;verticalAlign=middle;whiteSpace=wrap;rounded=0;sketch=1;fontFamily=粉圓體;fontSource=https%3A%2F%2Fgithub.com%2Fjustfont%2Fopen-huninn-font%2Fraw%2Fmaster%2Ffont%2Fjf-openhuninn-1.1.ttf;fontColor=#000000;" vertex="1" parent="1">
          <mxGeometry x="510" y="360" width="290" height="30" as="geometry" />
        </mxCell>
        <mxCell id="1pa4mlFPbAqnV3mgH6T4-23" value="&lt;font color=&quot;#000000&quot;&gt;7&lt;/font&gt;" style="ellipse;whiteSpace=wrap;html=1;aspect=fixed;sketch=1;fontFamily=粉圓體;fontSource=https%3A%2F%2Fgithub.com%2Fjustfont%2Fopen-huninn-font%2Fraw%2Fmaster%2Ffont%2Fjf-openhuninn-1.1.ttf;fillColor=#1ba1e2;strokeColor=#006EAF;fontColor=#ffffff;" vertex="1" parent="1">
          <mxGeometry x="480" y="360" width="30" height="30" as="geometry" />
        </mxCell>
        <mxCell id="1pa4mlFPbAqnV3mgH6T4-29" style="edgeStyle=orthogonalEdgeStyle;rounded=1;sketch=1;orthogonalLoop=1;jettySize=auto;html=1;exitX=1;exitY=0.5;exitDx=0;exitDy=0;entryX=0;entryY=0.5;entryDx=0;entryDy=0;fontFamily=粉圓體;fontSource=https%3A%2F%2Fgithub.com%2Fjustfont%2Fopen-huninn-font%2Fraw%2Fmaster%2Ffont%2Fjf-openhuninn-1.1.ttf;fontColor=#000000;" edge="1" parent="1" source="1pa4mlFPbAqnV3mgH6T4-27" target="BeBIerChKtcQzGGhishX-14">
          <mxGeometry relative="1" as="geometry" />
        </mxCell>
        <UserObject label="Save as png, svg" link="https://github.com/settings/installations" id="1pa4mlFPbAqnV3mgH6T4-27">
          <mxCell style="rounded=0;whiteSpace=wrap;html=1;fontFamily=粉圓體;fontSource=https%3A%2F%2Fgithub.com%2Fjustfont%2Fopen-huninn-font%2Fraw%2Fmaster%2Ffont%2Fjf-openhuninn-1.1.ttf;fillColor=#dae8fc;strokeColor=#6c8ebf;sketch=1;" vertex="1" parent="1">
            <mxGeometry x="440" y="160" width="120" height="40" as="geometry" />
          </mxCell>
        </UserObject>
        <mxCell id="1pa4mlFPbAqnV3mgH6T4-31" value="&lt;font color=&quot;#000000&quot;&gt;7&lt;/font&gt;" style="ellipse;whiteSpace=wrap;html=1;aspect=fixed;sketch=1;fontFamily=粉圓體;fontSource=https%3A%2F%2Fgithub.com%2Fjustfont%2Fopen-huninn-font%2Fraw%2Fmaster%2Ffont%2Fjf-openhuninn-1.1.ttf;fillColor=#1ba1e2;strokeColor=#006EAF;fontColor=#ffffff;" vertex="1" parent="1">
          <mxGeometry x="420" y="130" width="30" height="30" as="geometry" />
        </mxCell>
        <mxCell id="1pa4mlFPbAqnV3mgH6T4-32" value="Complete" style="text;html=1;strokeColor=none;fillColor=none;align=left;verticalAlign=middle;whiteSpace=wrap;rounded=0;sketch=1;fontFamily=粉圓體;fontSource=https%3A%2F%2Fgithub.com%2Fjustfont%2Fopen-huninn-font%2Fraw%2Fmaster%2Ffont%2Fjf-openhuninn-1.1.ttf;fontColor=#000000;" vertex="1" parent="1">
          <mxGeometry x="510" y="400" width="290" height="30" as="geometry" />
        </mxCell>
        <mxCell id="1pa4mlFPbAqnV3mgH6T4-33" value="&lt;font color=&quot;#000000&quot;&gt;8&lt;/font&gt;" style="ellipse;whiteSpace=wrap;html=1;aspect=fixed;sketch=1;fontFamily=粉圓體;fontSource=https%3A%2F%2Fgithub.com%2Fjustfont%2Fopen-huninn-font%2Fraw%2Fmaster%2Ffont%2Fjf-openhuninn-1.1.ttf;fillColor=#1ba1e2;strokeColor=#006EAF;fontColor=#ffffff;" vertex="1" parent="1">
          <mxGeometry x="480" y="400" width="30" height="30" as="geometry" />
        </mxCell>
      </root>
    </mxGraphModel>
  </diagram>
</mxfile>
